name analog
datacolumns 19
datarows 28
range 0.257 0.2705
endheader
time	ground_force_vx	ground_force_vy	ground_force_vz	ground_force_px	ground_force_py	ground_force_pz	l_ground_force_vx	l_ground_force_vy	l_ground_force_vz	l_ground_force_px	l_ground_force_py	l_ground_force_pz	ground_torque_x	ground_torque_y	ground_torque_z	l_ground_torque_x	l_ground_torque_y	l_ground_torque_z
0.257	-0.0	-0.0	-0.0	-3.227170467376709	44.98359680175781	-404.39105224609375	-36.18252944946289	-40.54346466064453	-278.2889099121094	-0.0	-0.0	-0.0	-0.0	-0.0	-0.0	66754.734375	7218.029296875	-8223.3056640625
0.2575	-0.0	-0.0	-0.0	-2.967556953430176	44.735599517822266	-405.7258911132813	-35.73500442504883	-39.6449089050293	-274.1752319335937	-0.0	-0.0	-0.0	-0.0	-0.0	-0.0	65645.9921875	7047.10400390625	-8248.5517578125
0.258	-0.0	-0.0	-0.0	-2.7655258178710938	44.46813583374024	-407.8284912109375	-35.048561096191406	-38.351016998291016	-270.28936767578125	-0.0	-0.0	-0.0	-0.0	-0.0	-0.0	64443.7265625	6580.9267578125	-8112.41259765625
0.2585	-0.0	-0.0	-0.0	-2.769536256790161	45.2822494506836	-409.0141296386719	-34.762821197509766	-37.536720275878906	-263.3377685546875	-0.0	-0.0	-0.0	-0.0	-0.0	-0.0	62890.0859375	6344.3525390625	-8160.888671875
0.259	-0.0	-0.0	-0.0	-2.7736072540283203	44.74749755859375	-411.1014404296875	-33.54457473754883	-36.05104064941406	-257.32476806640625	-0.0	-0.0	-0.0	-0.0	-0.0	-0.0	61726.90234375	5780.67822265625	-8122.01416015625
0.2595	-0.0	-0.0	-0.0	-2.769604206085205	44.723087310791016	-413.9268798828125	-33.09713363647461	-34.373085021972656	-249.84825134277344	-0.0	-0.0	-0.0	-0.0	-0.0	-0.0	60122.34765625	5282.66943359375	-8153.5224609375
0.26	-0.0	-0.0	-0.0	-2.311241149902344	44.654335021972656	-419.7843017578125	-31.968210220336918	-32.80758285522461	-243.7555389404297	-0.0	-0.0	-0.0	-0.0	-0.0	-0.0	58519.2109375	5036.88427734375	-7944.61083984375
0.2605	-0.0	-0.0	-0.0	-2.6845903396606445	44.47193908691406	-421.2945556640625	-31.14561080932617	-31.98458480834961	-237.8202209472656	-0.0	-0.0	-0.0	-0.0	-0.0	-0.0	57266.171875	4319.2685546875	-7656.6494140625
0.261	-0.0	-0.0	-0.0	-2.4086837768554688	44.29364013671875	-423.81591796875	-30.093454360961918	-30.39898681640625	-233.33009338378903	-0.0	-0.0	-0.0	-0.0	-0.0	-0.0	56389.25	3408.78955078125	-7534.1259765625
0.2615	-0.0	-0.0	-0.0	-2.587104797363281	43.94129180908203	-429.466796875	-29.282833099365234	-29.12967872619629	-238.8034210205078	-0.0	-0.0	-0.0	-0.0	-0.0	-0.0	58386.35546875	1837.1318359375	-7452.53564453125
0.262	-0.0	-0.0	-0.0	-1.877660036087036	43.62289047241211	-434.2938232421875	-24.981857299804688	-27.244531631469727	-253.41851806640625	-0.0	-0.0	-0.0	-0.0	-0.0	-0.0	63045.5078125	-544.4029541015625	-6560.521484375
0.2625	-0.0	-0.0	-0.0	-1.8227033615112305	43.43642044067383	-441.2547912597656	-20.622913360595703	-26.664783477783203	-278.3418884277344	-0.0	-0.0	-0.0	-0.0	-0.0	-0.0	70450.1484375	-4474.2744140625	-5170.17626953125
0.263	-0.0	-0.0	-0.0	-1.7122585773468018	44.10231018066406	-446.29986572265625	-14.781091690063477	-25.886693954467773	-312.8053283691406	-0.0	-0.0	-0.0	-0.0	-0.0	-0.0	80122.8359375	-9302.8984375	-3945.496826171875
0.2635	-0.0	-0.0	-0.0	-2.230262756347656	43.754356384277344	-451.01080322265625	-7.891846179962158	-27.17335700988769	-343.2462463378906	-0.0	-0.0	-0.0	-0.0	-0.0	-0.0	89790.7265625	-14041.490234375	-1873.076904296875
0.264	-0.0	-0.0	-0.0	-2.2171261310577397	44.54332733154297	-456.9801635742188	-1.0446560382843018	-27.737293243408203	-366.4398498535156	-0.0	-0.0	-0.0	-0.0	-0.0	-0.0	97059.09375	-18147.20703125	302.69091796875
0.2645	-0.0	-0.0	-0.0	-1.9626312255859373	44.99761962890625	-459.2912902832031	2.825725555419922	-29.23879814147949	-378.7953796386719	-0.0	-0.0	-0.0	-0.0	-0.0	-0.0	101008.421875	-20905.15234375	1933.5440673828125
0.265	-0.0	-0.0	-0.0	-2.7788453102111816	45.44319915771485	-463.6549682617188	3.8320155143737793	-30.373971939086918	-382.3038635253906	-0.0	-0.0	-0.0	-0.0	-0.0	-0.0	102175.2265625	-22145.478515625	2310.264404296875
0.2655	-0.0	-0.0	-0.0	-4.076822757720947	45.03321838378906	-461.6770935058594	1.4589698314666748	-30.815507888793945	-375.4938659667969	-0.0	-0.0	-0.0	-0.0	-0.0	-0.0	100481.703125	-22353.9140625	1635.0311279296875
0.266	-0.0	-0.0	-0.0	-5.646269798278809	45.955204010009766	-463.492919921875	-3.397599935531616	-30.236940383911133	-364.3398132324219	-0.0	-0.0	-0.0	-0.0	-0.0	-0.0	97682.3828125	-22197.8671875	246.50457763671875
0.2665	-0.0	-0.0	-0.0	-6.802759647369385	45.785736083984375	-461.9233093261719	-7.952647686004639	-30.316614151000977	-350.0612487792969	-0.0	-0.0	-0.0	-0.0	-0.0	-0.0	93933.8671875	-21577.828125	-1006.9708862304688
0.267	-0.0	-0.0	-0.0	-8.170738220214844	45.19369125366211	-457.5130615234375	-11.084346771240234	-29.530811309814453	-337.1439208984375	-0.0	-0.0	-0.0	-0.0	-0.0	-0.0	90309.875	-21123.203125	-1996.854248046875
0.2675	-0.0	-0.0	-0.0	-8.911818504333496	44.47607421875	-456.6616821289063	-12.5127592086792	-29.40660285949707	-326.6354064941406	-0.0	-0.0	-0.0	-0.0	-0.0	-0.0	87968.375	-21489.791015625	-2219.09521484375
0.268	-0.0	-0.0	-0.0	-9.45166015625	44.12420272827149	-453.464599609375	-12.42408561706543	-28.527904510498047	-317.20977783203125	-0.0	-0.0	-0.0	-0.0	-0.0	-0.0	86252.640625	-22350.837890625	-2189.207763671875
0.2685	-0.0	-0.0	-0.0	-9.460993766784668	44.02106857299805	-450.1920776367188	-10.40676975250244	-28.262939453125	-313.941650390625	-0.0	-0.0	-0.0	-0.0	-0.0	-0.0	85363.8046875	-23299.220703125	-1945.8199462890625
0.269	-0.0	-0.0	-0.0	-8.306012153625488	43.247100830078125	-449.170166015625	-8.628140449523926	-27.835186004638672	-311.0028381347656	-0.0	-0.0	-0.0	-0.0	-0.0	-0.0	84695.1484375	-25216.353515625	-1115.4295654296875
0.2695	-0.0	-0.0	-0.0	-7.390207290649414	42.336944580078125	-446.8855895996094	-5.117306709289551	-27.984006881713867	-308.3009033203125	-0.0	-0.0	-0.0	-0.0	-0.0	-0.0	85024.734375	-26599.515625	-141.91323852539062
0.27	-0.0	-0.0	-0.0	-5.249078750610352	41.81649017333984	-445.3977661132813	-1.9052412509918213	-28.499818801879883	-307.95172119140625	-0.0	-0.0	-0.0	-0.0	-0.0	-0.0	85369.1484375	-28341.59375	725.1460571289062
0.2705	-0.0	-0.0	-0.0	-2.724496603012085	40.84098052978516	-443.6130676269531	0.2424366772174835	-28.852880477905277	-305.5823059082031	-0.0	-0.0	-0.0	-0.0	-0.0	-0.0	85786.59375	-30213.599609375	1561.868408203125
